<svg xmlns="http://www.w3.org/2000/svg" width="512" height="512" viewBox="0 0 512 512" version="1.1">
	<path d="M 233.169 1.105 C 212.964 2.902, 187.062 8.669, 168.500 15.504 C 155.920 20.136, 130.852 32.321, 121 38.593 C 88.825 59.076, 59.076 88.825, 38.593 121 C 31.992 131.369, 19.962 156.288, 15.180 169.500 C -2.510 218.370, -4.539 273.226, 9.456 324.271 C 17.836 354.839, 32.637 384.747, 52.312 410.866 C 61.274 422.763, 80.475 442.749, 93 453.217 C 123.022 478.307, 165.273 498.724, 203 506.371 C 224.223 510.674, 232.464 511.466, 256 511.466 C 279.554 511.466, 287.818 510.670, 309 506.364 C 380.306 491.868, 444.499 444.294, 480.182 379.500 C 496.057 350.673, 506.941 316.558, 510.029 285.946 C 510.608 280.200, 511.514 273.581, 512.041 271.236 C 513.320 265.546, 513.288 241.296, 512 240.500 C 511.450 240.160, 511 237.829, 511 235.319 C 511 229.038, 508.372 211.706, 505.417 198.500 C 497.322 162.323, 477.252 121.759, 453.217 93 C 442.749 80.475, 422.763 61.274, 410.866 52.312 C 359.633 13.720, 296.354 -4.515, 233.169 1.105 M 97 256 L 97 391 256 391 L 415 391 415 256 L 415 121 256 121 L 97 121 97 256 M 116.460 141.250 C 116.198 141.938, 116.099 176.374, 116.241 217.776 L 116.500 293.052 158.464 241.526 C 181.545 213.187, 200.762 190, 201.169 190 C 201.576 190, 219.121 211.375, 240.157 237.500 C 261.194 263.625, 278.680 285, 279.016 285 C 279.352 285, 288.599 273.320, 299.564 259.045 C 310.529 244.770, 319.783 233.070, 320.129 233.045 C 320.475 233.020, 337.575 252.679, 358.129 276.732 L 395.500 320.463 395.758 231.482 C 395.900 182.542, 395.802 141.938, 395.539 141.250 C 395.161 140.258, 366.329 140, 256 140 C 145.671 140, 116.839 140.258, 116.460 141.250 M 312.500 162.363 C 308.523 164.210, 304.467 168.637, 302.553 173.218 C 299.499 180.529, 301.214 189.456, 306.803 195.339 C 315.364 204.352, 329.511 203.086, 336.736 192.659 C 339.161 189.160, 339.500 187.741, 339.500 181.085 C 339.500 172.481, 337.426 168.201, 331.184 163.924 C 326.986 161.048, 317.109 160.223, 312.500 162.363 M 158.250 272.039 L 116 323.966 116 347.983 L 116 372 256.033 372 L 396.066 372 395.783 361.058 L 395.500 350.116 358.500 306.614 C 338.150 282.687, 321.275 263.114, 321 263.117 C 320.725 263.120, 311.341 275.042, 300.146 289.610 C 288.952 304.178, 279.434 315.963, 278.997 315.799 C 278.559 315.634, 261.007 294.125, 239.991 268 C 218.975 241.875, 201.492 220.413, 201.140 220.306 C 200.788 220.199, 181.488 243.479, 158.250 272.039 M 0.397 256 C 0.397 263.975, 0.553 267.238, 0.743 263.250 C 0.932 259.262, 0.932 252.738, 0.743 248.750 C 0.553 244.762, 0.397 248.025, 0.397 256" stroke="none" fill="black" fill-rule="evenodd"/>
</svg>